<?xml version="1.0" standalone="no"?>
<!DOCTYPE svg PUBLIC "-//W3C//DTD SVG 20010904//EN"
 "http://www.w3.org/TR/2001/REC-SVG-20010904/DTD/svg10.dtd">
<svg version="1.0" xmlns="http://www.w3.org/2000/svg"
 width="49.000000pt" height="45.000000pt" viewBox="0 0 49.000000 45.000000"
 preserveAspectRatio="xMidYMid meet">

<g transform="translate(0.000000,45.000000) scale(0.100000,-0.100000)"
fill="#000000" stroke="none">
<path d="M10 320 c0 -18 7 -20 68 -20 l67 0 89 -115 89 -115 79 0 c63 0 78 3
78 15 0 12 -14 15 -69 15 l-70 0 -93 120 -93 120 -72 0 c-66 0 -73 -2 -73 -20z"/>
<path d="M330 320 c0 -18 7 -20 75 -20 68 0 75 2 75 20 0 18 -7 20 -75 20 -68
0 -75 -2 -75 -20z"/>
</g>
</svg>
